inDegrees=no
num_controls=7
num_derivatives=13
num_iterations=92
num_multipliers=7
num_parameters=0
num_slacks=7
num_states=26
objective=0.425677
objective_accelerations=0.058780
objective_balance=0.001303
objective_effort=0.014636
objective_height=0.345008
objective_ligament=0.005949
solver_duration=1424.577738
status=Solve_Succeeded
success=true
DataType=double
version=3
OpenSimVersion=4.5
endheader
time	/jointset/ground_pelvis/pelvis_tilt/value	/jointset/ground_pelvis/pelvis_tx/value	/jointset/ground_pelvis/pelvis_ty/value	/jointset/hip_l/hip_flexion_l/value	/jointset/hip_l/hip_adduction_l/value	/jointset/hip_l/hip_rotation_l/value	/jointset/back/lumbar_extension/value	/jointset/patellofemoral_l/patellar_flexion_l/value	/jointset/knee_l/knee_flexion_l/value	/jointset/knee_l/knee_adduction_l/value	/jointset/knee_l/knee_rotation_l/value	/jointset/ankle_l/ankle_angle_l/value	/jointset/subtalar_l/subtalar_angle_l/value	/jointset/ground_pelvis/pelvis_tilt/speed	/jointset/ground_pelvis/pelvis_tx/speed	/jointset/ground_pelvis/pelvis_ty/speed	/jointset/hip_l/hip_flexion_l/speed	/jointset/hip_l/hip_adduction_l/speed	/jointset/hip_l/hip_rotation_l/speed	/jointset/back/lumbar_extension/speed	/jointset/patellofemoral_l/patellar_flexion_l/speed	/jointset/knee_l/knee_flexion_l/speed	/jointset/knee_l/knee_adduction_l/speed	/jointset/knee_l/knee_rotation_l/speed	/jointset/ankle_l/ankle_angle_l/speed	/jointset/subtalar_l/subtalar_angle_l/speed	/forceset/tau_hip_flexion_l	/forceset/tau_hip_adduction_l	/forceset/tau_hip_rotation_l	/forceset/tau_knee_flexion_l	/forceset/tau_ankle_angle_l	/forceset/tau_subtalar_angle_l	/forceset/tau_lumbar_extension	lambda_cid13_p0	lambda_cid13_p1	lambda_cid13_p2	lambda_cid13_p3	lambda_cid13_p4	lambda_cid13_p5	lambda_cid14_p0	/jointset/ground_pelvis/pelvis_tilt/accel	/jointset/ground_pelvis/pelvis_tx/accel	/jointset/ground_pelvis/pelvis_ty/accel	/jointset/hip_l/hip_flexion_l/accel	/jointset/hip_l/hip_adduction_l/accel	/jointset/hip_l/hip_rotation_l/accel	/jointset/back/lumbar_extension/accel	/jointset/patellofemoral_l/patellar_flexion_l/accel	/jointset/knee_l/knee_flexion_l/accel	/jointset/knee_l/knee_adduction_l/accel	/jointset/knee_l/knee_rotation_l/accel	/jointset/ankle_l/ankle_angle_l/accel	/jointset/subtalar_l/subtalar_angle_l/accel	gamma_cid13_p0	gamma_cid13_p1	gamma_cid13_p2	gamma_cid13_p3	gamma_cid13_p4	gamma_cid13_p5	gamma_cid14_p0
1	-0.4407965343769106	-0.004087302909840506	0.5906290758028392	1.703129322074872	-0.345724624114541	0.1355388872870507	-0.4363288575227643	1.521316131233237	1.521316131233408	0.06660612918193581	-0.1745315104255649	0.4349803991737817	0.2506851635748421	-0.1436645752570305	0.001443749977698241	0.03744032846734908	0.01587820476435415	-0.0009398795750015601	-0.05373319074256924	5.299000963129111e-05	-0.1645245054353623	-0.1645245054353454	-0.01268911288179015	5.928880366620039e-06	-0.05125121739120343	-0.03267543592481562	-0.2353129097637307	0.03692706933170132	-0.01318992930999927	-0.2980644950846069	-0.03190455147855911	0.01287592697166465	0.2065370554884919	-42.33849283860643	7.354143011987987	-7.773472555051386	6.22059644365236	-543.3176305699758	-69.94275567207252	-0.02371949859061111	1.419392249729632	0.1887346965519664	2.030120297586086	-6.598556927739438	-0.2198414798841557	-1.5591708693797	-0.02069708741562544	-5.662674927697376	-5.662674927697688	-0.8932214936982339	-0.03216938635896681	-0.9773706026822554	-0.9405743889730761	-2.606425874002122e-09	-1.470702827796914e-07	-6.992299263103471e-08	-1.320293938497859e-08	-7.978331019334788e-09	-1.94394929166979e-07	6.217154398811901e-09
1.01	-0.4421628518505247	-0.004063401003330695	0.5911047852784858	1.702959138542695	-0.3457443988104579	0.1349257537126973	-0.4363285118707843	1.51938811560859	1.51938811560868	0.06643335394646148	-0.1745314725329884	0.4344190128148704	0.2503124091503138	-0.1295866979411733	0.003344932771473025	0.05769374408374896	-0.04991187146573113	-0.003011025621835447	-0.06888823772802966	1.398004751018064e-05	-0.2210785200901772	-0.2210785200901428	-0.02186173780005522	7.346745897091495e-07	-0.06103876559359752	-0.04186968254311334	-0.2356915949582139	0.03697807224641948	-0.01318950444149921	-0.2971371291754723	-0.03212396734569054	0.01289391670961767	0.2067283561709982	-42.37378183308849	7.317124669276105	-7.727153642500486	6.089386402834697	-543.1342815392254	-69.80201373398278	-0.0237367058503334	1.40381891441768	0.192051002608546	2.021776272909904	-6.56877686608329	-0.2001300974174443	-1.492885441323689	0.004172998494852398	-5.651751372636686	-5.651751372633918	-0.9286664098858792	0.01513671242768175	-0.9813627673325654	-0.9079430335864107	-2.988178141883767e-09	-1.902417501685469e-07	-9.652444814766284e-08	-2.134406789855036e-08	-1.262319958628893e-08	-2.458045073711532e-07	7.728894919042032e-09
1.02	-0.4433880238625994	-0.004020239082519477	0.591782793726145	1.70213114546913	-0.34578476075291	0.1341612269028506	-0.4363286211285993	1.516894562509742	1.516894562509751	0.06616897577800523	-0.1745315203524455	0.4337593678062722	0.2498478936125368	-0.115435482949159	0.005295752837979488	0.07790012286987105	-0.1156837035134249	-0.00505732888204687	-0.08401183784126892	-3.799195040183304e-05	-0.2776320002755178	-0.2776320002754661	-0.03100969947812982	-1.121352659773428e-05	-0.0709029473285749	-0.05102765857454252	-0.2360702801526949	0.03702907516113817	-0.01318907957300007	-0.2962097632663376	-0.03234338321282214	0.01291190644757148	0.2069196568535067	-42.41338679629303	7.279191177095261	-7.67878003586713	5.959076637752589	-543.0627211594881	-69.6612319104015	-0.02375650075692831	1.434059784961051	0.1986621510983009	2.020712931530532	-6.594908091261126	-0.2148729225596613	-1.552881494935469	-0.02328949457380167	-5.662568033802525	-5.662568033802841	-0.8882888456601413	-0.03352018544107041	-0.9926973091989174	-0.9333202715993649	-3.422293100629841e-09	-2.321756609644992e-07	-1.209937718935303e-07	-2.901248098637311e-08	-1.733657015947705e-08	-2.941518339754729e-07	8.942042221122969e-09
1.03	-0.4444712711563416	-0.003957285922780335	0.5926625733452545	1.700645594672887	-0.3458454233808399	0.1332456159304689	-0.4363292549224142	1.513835501184086	1.513835501184019	0.065813318598982	-0.1745316926317972	0.433000619184476	0.2492920188583667	-0.1011969390294199	0.007306687638334233	0.09804236166496418	-0.1814173130781165	-0.007067744661065266	-0.09910160181331372	-8.535876456518259e-05	-0.3341780468500984	-0.334178046850047	-0.04011482001723402	-2.172081412507068e-05	-0.08086729704866968	-0.06013811861293562	-0.236300413524623	0.03710097503757071	-0.01315647174029962	-0.2950829014293471	-0.03253385437602176	0.01296007879745738	0.2070320543516651	-42.42211946112559	7.212296205851057	-7.613855727944668	5.799052106184456	-542.7619263129776	-69.52341526887174	-0.02378305129339781	1.42130689119889	0.2040730421130369	2.008959021742074	-6.561216437929302	-0.1929833130553158	-1.485720889121189	0.0050509323620715	-5.650292306205656	-5.650292306205471	-0.9206056924100355	0.01536570632138227	-1.001394968728987	-0.8984716959731179	-3.856942372548001e-09	-2.740969436319525e-07	-1.454413391927573e-07	-3.667607044740249e-08	-2.205063973272878e-08	-3.424679131144881e-07	1.015214265363095e-08
